<?xml version="1.0" encoding="UTF-8" standalone="no"?>
<!-- Generator: Adobe Illustrator 16.0.0, SVG Export Plug-In . SVG Version: 6.00 Build 0)  -->

<svg
   xmlns:dc="http://purl.org/dc/elements/1.1/"
   xmlns:cc="http://creativecommons.org/ns#"
   xmlns:rdf="http://www.w3.org/1999/02/22-rdf-syntax-ns#"
   xmlns:svg="http://www.w3.org/2000/svg"
   xmlns="http://www.w3.org/2000/svg"
   xmlns:sodipodi="http://sodipodi.sourceforge.net/DTD/sodipodi-0.dtd"
   xmlns:inkscape="http://www.inkscape.org/namespaces/inkscape"
   version="1.1"
   id="Capa_1"
   x="0px"
   y="0px"
   width="612px"
   height="612px"
   viewBox="0 0 612 612"
   style="enable-background:new 0 0 612 612;"
   xml:space="preserve"
   inkscape:version="0.91 r13725"
   sodipodi:docname="screen_lock_rotation.svg"><metadata
     id="metadata3472"><rdf:RDF><cc:Work
         rdf:about=""><dc:format>image/svg+xml</dc:format><dc:type
           rdf:resource="http://purl.org/dc/dcmitype/StillImage" /><dc:title /></cc:Work></rdf:RDF></metadata><defs
     id="defs3470" /><sodipodi:namedview
     pagecolor="#ffffff"
     bordercolor="#666666"
     borderopacity="1"
     objecttolerance="10"
     gridtolerance="10"
     guidetolerance="10"
     inkscape:pageopacity="0"
     inkscape:pageshadow="2"
     inkscape:window-width="2030"
     inkscape:window-height="1392"
     id="namedview3468"
     showgrid="false"
     inkscape:zoom="2.8284271"
     inkscape:cx="381.13364"
     inkscape:cy="319.51254"
     inkscape:window-x="130"
     inkscape:window-y="48"
     inkscape:window-maximized="1"
     inkscape:current-layer="screen-rotation" /><g
     id="g3433"><g
       id="screen-rotation"
       style="fill:#ffffff;image-rendering:auto"
       transform="matrix(0.729,0,0,0.729,82.926,82.926)"><path
         style="fill:#ffffff"
         d="m 252.08984,106.16211 c -6.97106,0 -13.94072,2.78838 -19.51757,8.36523 L 113.59961,233.5 c -11.1537,11.1537 -11.1537,27.88536 0,39.03906 l 223.07227,223.07422 c 11.15428,11.15443 27.88463,11.15443 39.03906,0 L 494.68359,376.64062 c 11.15443,-11.15428 11.15123,-27.88143 0,-39.03906 l -39.71098,-39.73308 -19.70354,19.35867 40.82422,40.82422 -118.97266,118.97266 -223.07421,-223.07422 118.97265,-118.97266 38.87109,38.8711 19.44468,-18.97563 -39.72592,-40.34464 c -5.53359,-5.61978 -12.54847,-8.36523 -19.51954,-8.36523 z M 83.855469,324.58984 c 9.29475,115.2549 104.100991,204.48438 221.214841,204.48438 l 13.01367,0 -70.64062,-70.64063 -26.02539,24.16602 C 160.07262,454.71536 117.31666,395.22994 109.88086,324.58984 Z"
         transform="matrix(1.3717421,0,0,1.3717421,-113.75309,-113.75309)"
         id="path3436"
         inkscape:connector-curvature="0"
         sodipodi:nodetypes="csssssssccccccccsscccccccc" /><path
         style="fill:#ffffff"
         d="M 330.45898 162.57422 C 324.31454 162.57422 319.36719 167.03947 319.36719 172.58594 L 319.36719 275.39648 C 319.36719 280.94295 324.31454 285.4082 330.45898 285.4082 L 454.23047 285.4082 C 460.37492 285.4082 465.32227 280.94295 465.32227 275.39648 L 465.32227 172.58594 C 465.32227 167.03947 460.37492 162.57422 454.23047 162.57422 L 330.45898 162.57422 z "
         transform="matrix(1.3717421,0,0,1.3717421,-113.75309,-113.75309)"
         id="rect3425" /><ellipse
         style="fill:none;stroke:#ffffff;stroke-width:18.8309536;stroke-miterlimit:4;stroke-dasharray:none"
         id="path3429"
         cx="424.41431"
         cy="110.64851"
         rx="62.315582"
         ry="64.793289"
         transform="matrix(0.99997106,-0.00760794,0.0075681,0.99997136,0,0)" /></g></g><g
     id="g3438" /><g
     id="g3440" /><g
     id="g3442" /><g
     id="g3444" /><g
     id="g3446" /><g
     id="g3448" /><g
     id="g3450" /><g
     id="g3452" /><g
     id="g3454" /><g
     id="g3456" /><g
     id="g3458" /><g
     id="g3460" /><g
     id="g3462" /><g
     id="g3464" /><g
     id="g3466" /></svg>